<svg id="chengdu" xmlns="http://www.w3.org/2000/svg" width="500" height="500" viewBox="0 0 500 500">
  <defs>
    <style>
      .cls-1 {
        fill: #161823;
      }

      .cls-2 {
        fill: #fff;
      }

      .cls-3 {
        fill: #b4926a;
      }
    </style>
  </defs>
  <title>Team_Logos_Chengdu</title>
  <g>
    <path class="cls-1" d="M195.56,92.2s1.93,6.63,3,13c-3.36,5.69-7.73,16-12.7,26.5-10.48,6.9-15.45,10.48-25.11,15.45-2.48,15.73,2.48,40.57,27.05,52.16-2.76-3.86-3.59-7.17-1.38-9.66s27.87-39.19,31.18-47.19,4.69-10.49,2.49-14.07C216.3,122.15,195.56,92.2,195.56,92.2Z"/>
    <path class="cls-1" d="M304.42,92.2s-1.93,6.63-3,13c3.36,5.69,7.73,16,12.7,26.5,10.48,6.9,15.45,10.48,25.11,15.45,2.48,15.73-2.48,40.57-27.05,52.16,2.76-3.86,3.59-7.17,1.38-9.66s-27.87-39.19-31.18-47.19-4.69-10.49-2.48-14.07C283.68,122.15,304.42,92.2,304.42,92.2Z"/>
    <polygon class="cls-2" points="208.38 142.47 193.77 138.79 201.4 147.97 208.38 142.47"/>
    <polygon class="cls-2" points="289.67 142.47 304.27 138.79 296.64 147.97 289.67 142.47"/>
    <path class="cls-1" d="M384.62,141.38s33.9-61.7-3.7-92.52c-15.81-15.2-49.66,19.37-49.66,19.37Z"/>
    <path class="cls-1" d="M119.13,48.86a46.54,46.54,0,0,0-11.55,13.91l9.93,14.35-14.45-2.41c-7.38,30.72,12.36,66.67,12.36,66.67l53.37-73.15S134.94,33.66,119.13,48.86Z"/>
    <path class="cls-1" d="M292.19,193.51a283.16,283.16,0,0,0-38.74,8.16V189.26l5.24-5a42.69,42.69,0,0,1,11-1.39c7-.1,16.28-9,12.83-21.9-13.37,2.95-32.56,6.77-32.57,6.77s-19.19-3.82-32.57-6.77c-3.44,12.92,5.81,21.8,12.84,21.9a42.69,42.69,0,0,1,11,1.39l5.23,5v14.43c-21.42,6.45-41,14.63-47.56,21.49-1.22,1.27,52.31-17.16,88.38-17.6,7.48,4.84,14.56,16.28,14.56,16.28A66.33,66.33,0,0,0,292.19,193.51Z"/>
    <path class="cls-1" d="M146.8,334.15c18.58,11.4,31.18,18.56,38.27,22.46-6.48-10.92-11.3-22.2-13.57-33C228.59,371.52,250,376.49,250,376.49s21.39-5,78.48-52.92c-2.27,10.84-7.09,22.12-13.57,33,7.09-3.9,19.69-11.06,38.27-22.46,30.84-18.93,72.56-54.4,72.84-82.4C424.91,233,421.39,210,417,194c-6,54.12-49.3,91.77-71.34,102.28,0,0,5.89-14.91,6.1-25.87C290.82,325.46,250,333,250,333s-40.84-7.53-101.77-62.54c.21,11,6.1,25.87,6.1,25.87C132.26,285.81,88.94,248.16,83,194,78.56,210,75,233,74,251.75,74.24,279.75,116,315.22,146.8,334.15Z"/>
    <path class="cls-3" d="M306.27,375.76C281.21,404.31,250,418.7,250,418.7c-39.72-20.27-124.84-76.19-143-91.94-17.73-15.41-29.87-34-32.59-51.31-.92-5.82-1-14.21-.45-23.7.28,28,42,63.47,72.84,82.4,18.58,11.4,31.18,18.56,38.27,22.46-6.48-10.92-11.3-22.2-13.57-33C228.59,371.52,250,376.49,250,376.49s21.39-5,78.48-52.92c-2.27,10.84-7.09,22.12-13.57,33,7.09-3.9,19.69-11.06,38.27-22.46,30.84-18.93,72.56-54.4,72.84-82.4.55,9.49.63,17.91-.45,23.7-4,21.42-26.52,70.82-104.43,132.86-38.47,30.4-90.81,54-96.17,56.69C254.9,440.76,284.77,414.14,306.27,375.76Z"/>
  </g>
</svg>
