<svg id="guangzhou" xmlns="http://www.w3.org/2000/svg" width="500" height="500" viewBox="0 0 500 500">
  <defs>
    <style>
      .cls-1 {
        fill: #67a2b2;
      }
    </style>
  </defs>
  <title>Team_Logos_Guangzhou</title>
  <g>
    <path class="cls-1" d="M272.59,226.24H179.52l-36.6,47h46.43l-24.25,41H131c-4.35,0-17.52-5.33-28.23-17.66-8.33-9.57-17.51-26.21-14-51.11,6.4-45.54,52.94-68.56,61.73-68.56H202.5l-1.82,22.89,3.49-4.41L293.45,80.75,195,124.36H156.45c-19.94,0-47.49,12.59-70.18,32.07-27.63,23.72-45.39,54.85-50,87.66-4.92,35,4.56,67.45,26.68,91.45,17.48,19,41.81,31.23,62,31.23h69.84Z"/>
    <polygon class="cls-1" points="465 311.07 320.4 311.07 461.99 124.15 300.08 124.15 268.65 176.69 359.61 176.69 246.61 325.86 173.29 419.25 286.68 363.6 424.08 363.6 465 311.07"/>
  </g>
</svg>
