<svg id="toronto" xmlns="http://www.w3.org/2000/svg" width="500" height="500" viewBox="0 0 500 500">
  <title>Team_Logos_Toronto</title>
  <g>
    <polygon points="329.03 253.1 263.67 198.56 35 198.56 100.85 253.1 165.39 253.1 165.39 298.8 178.33 301.52 165.39 308.91 165.39 392.35 221.9 445.43 221.9 253.1 329.03 253.1"/>
    <path d="M445,252.12h-.1L221.9,55.35v-.77l-56.51,53.07v72.23H221.9v-45L359.82,252.13,240.08,353.35l.08,79.12,67.68-59.59,2-23.3s4.36,9.53,7.07,15.34L341,343.67l-14.08-23,24.8,13.58,93.16-82h.1l-.05,0Z"/>
  </g>
</svg>
