<svg id="washington" xmlns="http://www.w3.org/2000/svg" width="500" height="500" viewBox="0 0 500 500">
  <defs>
    <style>
      .cls-1 {
        fill: #003768;
      }

      .cls-2 {
        fill: #fff;
      }

      .cls-3 {
        fill: #990034;
      }
    </style>
  </defs>
  <title>Team_Logos_Washington</title>
  <g>
    <path class="cls-1" d="M251.94,38l-1.72-.45-198.61,52,.49,5.7C60,186.53,85,313.23,159.65,398.29c45.27,51.57,87,63.26,88.81,63.74l1.76.47L252,462c1.75-.47,43.42-12.16,88.59-63.73,74.48-85.07,99.47-211.77,107.32-303.07l.49-5.7Z"/>
    <path class="cls-2" d="M59.21,94.78c27.21,316.83,190.85,361,190.85,361s164.07-44.16,191.28-361L250.06,44.65Z"/>
    <path class="cls-3" d="M250.09,440.54S113.77,405.89,91.05,116l159-43.28L409.5,116C387.84,404.91,250.09,440.54,250.09,440.54Z"/>
    <path class="cls-1" d="M250.06,91.55l137.78,38.86q-1.9,25.41-5,47.91c-14,11.27-72.95,58.42-132.76,58.42-57.5,0-114.23-43.76-130.94-57q-3.25-23.17-5.35-49.37Z"/>
    <path class="cls-2" d="M250.06,236.74c59.81,0,118.8-47.15,132.76-58.42q-1.6,11.76-3.5,22.78c-9.45,7.89-68.92,57.13-129.26,57.13-57.14,0-113.48-44.32-127.34-55.55q-1.93-11.07-3.6-22.9C135.83,193,192.56,236.74,250.06,236.74Z"/>
    <path class="cls-2" d="M250.06,272.89c56.94,0,113.1-47.68,127.19-60.38q-3.06,16.05-6.69,30.47c-23.78,18.79-71.87,51.22-120.5,51.22-47.28,0-94-30.64-118.46-49.62q-3.61-14.34-6.73-30.29C141.69,229.09,195.52,272.89,250.06,272.89Z"/>
    <path class="cls-2" d="M348.16,309.82V275.76c6.18-4.07,11.78-8.07,16.65-11.75A393.21,393.21,0,0,1,348.16,309.82Z"/>
    <path class="cls-2" d="M330.42,344.24a233.2,233.2,0,0,1-17.55,25.29V295.46c6.09-2.78,12-5.8,17.55-8.91Z"/>
    <path class="cls-2" d="M152.72,308.27a402.5,402.5,0,0,1-15.35-42.71c4.58,3.4,9.73,7,15.35,10.7Z"/>
    <path class="cls-2" d="M187.25,368.36a236.24,236.24,0,0,1-17.55-26.13V286.55c5.58,3.11,11.45,6.13,17.55,8.91Z"/>
    <polygon class="cls-2" points="250.06 121.31 260.85 154.53 295.77 154.53 267.52 175.05 278.31 208.26 250.06 187.74 221.81 208.26 232.6 175.05 204.35 154.53 239.27 154.53 250.06 121.31"/>
    <path class="cls-2" d="M222.27,307.57v77A135.45,135.45,0,0,0,238.19,394c.54-12.1,3.23-75.37,3.23-75.37l8.64-9,8.64,9s2.64,63.27,3.18,75.37a135.45,135.45,0,0,0,15.92-9.44v-77c3.82-.54,17.58-5.05,17.58-5.05v86.17c-23.22,21.95-42.57,27.72-45.34,28.46-2.78-.74-22.13-6.51-45.35-28.46V302.52S218.45,307,222.27,307.57Z"/>
  </g>
</svg>
